<svg height="16" width="16" viewBox="0 0 16 16" xmlns="http://www.w3.org/2000/svg">
	<defs>
		<clipPath id="clip1">
			<path transform="translate(4.395 3.646)" d="M -4.395 -3.646 V 16 H 16 V -16 H -16 Z M 5.53 6.496 L 7.21 6.118 L 7.21 8.386 A 1.044 1.044 0 0 1 7.042 8.499 Q 6.954 8.547 6.848 8.587 A 1.983 1.983 0 0 1 6.762 8.617 A 1.792 1.792 0 0 1 6.443 8.688 A 2.476 2.476 0 0 1 6.119 8.708 A 2.308 2.308 0 0 1 5.695 8.671 A 1.812 1.812 0 0 1 5.341 8.568 A 0.896 0.896 0 0 1 5.043 8.363 Q 4.945 8.264 4.859 8.128 A 2.012 2.012 0 0 1 4.76 7.952 L 2.702 4.27 A 49.882 49.882 0 0 0 2.438 3.75 A 56.833 56.833 0 0 0 2.345 3.57 A 25.475 25.475 0 0 1 1.993 2.867 A 23.543 23.543 0 0 1 1.988 2.856 Q 1.82 2.506 1.68 2.212 L 0 2.604 L 0 0.406 Q 0.145 0.221 0.422 0.123 A 1.404 1.404 0 0 1 0.455 0.112 A 2.017 2.017 0 0 1 0.945 0.019 A 2.384 2.384 0 0 1 1.106 0.014 A 2.193 2.193 0 0 1 1.601 0.068 A 1.878 1.878 0 0 1 1.876 0.154 Q 2.171 0.272 2.387 0.62 A 1.968 1.968 0 0 1 2.464 0.756 L 4.522 4.438 A 44.108 44.108 0 0 1 4.799 4.958 A 49.038 49.038 0 0 1 4.893 5.138 A 16.852 16.852 0 0 1 5.202 5.764 A 15.333 15.333 0 0 1 5.243 5.852 A 31.023 31.023 0 0 1 5.395 6.188 A 23.486 23.486 0 0 1 5.53 6.496 Z" />
		</clipPath>
		<clipPath id="clip2" clip-path="url(#clip1)">
			<path transform="translate(4.395 3.646)" d="M -4.395 -3.646 V 16 H 16 V -16 H -16 Z M 7.21 0.798 L 7.21 6.692 L 5.614 6.734 Q 5.502 5.656 5.488 4.627 A 148.51 148.51 0 0 1 5.474 2.875 A 134.913 134.913 0 0 1 5.474 2.632 L 5.474 0.112 Q 5.6 0.084 5.817 0.042 A 2.293 2.293 0 0 1 6.102 0.006 A 2.799 2.799 0 0 1 6.286 0 Q 6.729 0 6.949 0.149 A 0.536 0.536 0 0 1 6.993 0.182 Q 7.159 0.321 7.198 0.607 A 1.412 1.412 0 0 1 7.21 0.798 Z" />
		</clipPath>
		<clipPath id="clip3" clip-path="url(#clip2)">
			<path transform="translate(4.395 3.646)" d="M -4.395 -3.646 V 16 H 16 V -16 H -16 Z M 0 7.896 L 0 2.002 L 1.582 1.96 A 23.875 23.875 0 0 1 1.654 2.781 A 27.56 27.56 0 0 1 1.673 3.08 Q 1.708 3.668 1.715 4.242 A 93.422 93.422 0 0 1 1.722 5.079 A 83.261 83.261 0 0 1 1.722 5.348 L 1.722 8.596 A 1.082 1.082 0 0 1 1.665 8.61 Q 1.599 8.625 1.499 8.642 A 6.746 6.746 0 0 1 1.393 8.659 Q 1.162 8.694 0.938 8.694 Q 0.506 8.694 0.285 8.566 A 0.541 0.541 0 0 1 0.217 8.519 Q 0 8.344 0 7.898 A 1.465 1.465 0 0 1 0 7.896 Z" />
		</clipPath>
	</defs>
	<g clip-path="url(#clip3)">
		<rect width="100%" height="100%" rx="25%" fill="#fb8c00"/>
	</g>
</svg>
